<svg width="512" height="512" viewBox="0 0 512 512" fill="none" xmlns="http://www.w3.org/2000/svg">
<circle cx="256" cy="256" r="226" fill="#2CDA9D"/>
<path d="M65.7891 286.985C65.7891 277.845 67.3516 269.563 70.4766 262.142C73.6797 254.72 78.25 248.392 84.1875 243.157C90.125 237.845 97.3125 233.782 105.75 230.97C114.266 228.079 123.797 226.634 134.344 226.634C142.391 226.634 149.617 227.61 156.023 229.563C162.43 231.438 167.938 233.938 172.547 237.063V151.517H236.18V344.993H177.586L172.781 330.462C170.594 332.571 167.977 334.642 164.93 336.673C161.883 338.704 158.523 340.501 154.852 342.063C151.18 343.626 147.195 344.876 142.898 345.813C138.68 346.751 134.227 347.22 129.539 347.22C120.711 347.22 112.43 345.931 104.695 343.353C96.9609 340.774 90.2031 336.985 84.4219 331.985C78.6406 326.907 74.0703 320.618 70.7109 313.118C67.4297 305.54 65.7891 296.829 65.7891 286.985ZM131.414 284.759C131.414 291.478 132.039 297.22 133.289 301.985C134.617 306.751 136.414 310.657 138.68 313.704C140.945 316.673 143.641 318.86 146.766 320.267C149.891 321.673 153.328 322.376 157.078 322.376C160.047 322.376 162.82 321.868 165.398 320.853C168.055 319.759 170.438 318.392 172.547 316.751V252.532C170.594 250.813 168.367 249.485 165.867 248.548C163.445 247.61 161.062 247.142 158.719 247.142C154.812 247.142 151.18 247.884 147.82 249.368C144.539 250.774 141.648 253.001 139.148 256.048C136.727 259.095 134.812 263.001 133.406 267.767C132.078 272.454 131.414 278.118 131.414 284.759Z" fill="#1D2024"/>
<path d="M172.406 151.521H236.039V344.997H172.406V151.521Z" fill="#1D2024"/>
<path d="M363.316 306.496H364.649L375.313 209.699H431.812L403.204 343H321.788L293.077 209.699H349.576L363.316 306.496Z" fill="#1D2024"/>
<path d="M226.704 221.287C229.78 220.398 233.062 219.954 236.548 219.954C240.034 219.954 243.35 220.091 246.494 220.364L250.801 220.774C257.568 221.39 262.764 222.176 266.387 223.133V223.03L268.54 223.953C282.896 228.396 294.072 235.164 302.07 244.256V244.153C303.916 246.341 306.172 249.656 308.838 254.1C311.572 258.475 312.939 261.517 312.939 263.226L313.76 265.994L314.272 268.968C315.571 273.548 316.221 277.376 316.221 280.452C316.221 283.528 316.255 285.887 316.323 287.527H231.831V290.911C232.241 292.483 232.446 294.124 232.446 295.833C232.446 297.542 232.446 298.909 232.446 299.935C232.515 300.892 232.617 301.849 232.754 302.806C232.891 303.694 232.959 304.446 232.959 305.062C233.027 305.608 233.198 306.292 233.472 307.112C233.745 307.864 233.882 308.377 233.882 308.65C233.95 308.924 234.155 309.471 234.497 310.291C234.907 311.111 235.215 311.897 235.42 312.649C235.693 313.333 236.172 314.017 236.855 314.7V314.598L237.983 316.751C239.282 318.187 241.06 319.212 243.315 319.827C247.075 319.007 249.604 317.059 250.903 313.982C252.271 310.906 253.398 307.078 254.287 302.498C256.748 301.814 260.234 301.473 264.746 301.473L277.871 301.78H315.708C314.888 310.12 312.427 317.776 308.325 324.749H308.428C304.873 330.354 299.336 335.174 291.816 339.207C270.557 346.658 256.919 350.384 250.903 350.384C249.81 350.384 248.921 350.315 248.237 350.179H245.879L244.956 350.281H244.033C243.486 350.281 242.803 350.213 241.982 350.076C241.299 350.486 240.479 350.691 239.521 350.691L230.601 349.666C230.122 349.871 229.131 349.974 227.627 349.974C226.191 349.974 222.363 349.051 216.143 347.205V347.308L213.682 346.59L211.221 345.77C200.967 342.762 192.183 337.498 184.868 329.979C177.554 322.391 172.871 313.572 170.82 303.523C170.615 302.293 170.239 300.447 169.692 297.986C169.146 295.457 168.872 293.748 168.872 292.859V287.938C168.872 286.775 168.906 285.887 168.975 285.271V283.733C168.975 269.241 173.281 256.731 181.895 246.204C190.508 235.608 202.061 228.157 216.553 223.851L219.014 223.133C222.637 222.518 225.234 221.868 226.807 221.185L226.704 221.287ZM257.363 273.992L259.517 272.659C258.354 265.276 257.261 260.56 256.235 258.509C255.21 256.39 254.219 254.578 253.262 253.074C251.484 250.203 249.126 248.768 246.187 248.768C243.315 248.768 240.854 250.203 238.804 253.074C235.181 258.133 232.891 265.242 231.934 274.402C236.309 274.129 240.342 273.992 244.033 273.992H257.363Z" fill="#1D2024"/>
<path d="M226.704 221.287L223.169 217.752L228.092 226.091L226.704 221.287ZM246.494 220.364L246.968 215.387L246.948 215.385L246.927 215.383L246.494 220.364ZM250.801 220.774L250.327 225.752L250.337 225.753L250.348 225.754L250.801 220.774ZM266.387 223.133L265.11 227.967L271.387 229.625V223.133H266.387ZM266.387 223.03L268.356 218.435L261.387 215.448V223.03H266.387ZM268.54 223.953L266.57 228.549L266.811 228.652L267.062 228.73L268.54 223.953ZM302.07 244.256L298.316 247.558L307.07 257.51V244.256H302.07ZM302.07 244.153L305.892 240.929L297.07 230.474V244.153H302.07ZM308.838 254.1L304.55 256.672L304.574 256.711L304.598 256.75L308.838 254.1ZM312.939 263.226H307.939V263.951L308.145 264.646L312.939 263.226ZM313.76 265.994L318.687 265.145L318.637 264.855L318.554 264.574L313.76 265.994ZM314.272 268.968L309.345 269.817L309.39 270.078L309.462 270.332L314.272 268.968ZM316.323 287.527V292.527H321.536L321.319 287.319L316.323 287.527ZM231.831 287.527V282.527H226.831V287.527H231.831ZM231.831 290.911H226.831V291.553L226.993 292.173L231.831 290.911ZM232.446 299.935H227.446V300.113L227.459 300.291L232.446 299.935ZM232.754 302.806L227.804 303.513L227.808 303.539L227.812 303.566L232.754 302.806ZM232.959 305.062H227.959V305.373L227.998 305.682L232.959 305.062ZM233.472 307.112L228.728 308.693L228.75 308.758L228.773 308.821L233.472 307.112ZM233.882 308.65H228.882V309.266L229.031 309.863L233.882 308.65ZM234.497 310.291L229.882 312.214L229.948 312.373L230.025 312.527L234.497 310.291ZM235.42 312.649L230.596 313.965L230.671 314.241L230.778 314.506L235.42 312.649ZM236.855 314.7L233.32 318.236L241.855 326.771V314.7H236.855ZM236.855 314.598L241.285 312.278L231.855 314.598H236.855ZM237.983 316.751L233.554 319.071L233.849 319.634L234.276 320.106L237.983 316.751ZM243.315 319.827L242 324.651L243.183 324.974L244.381 324.712L243.315 319.827ZM250.903 313.982L246.334 311.952L246.315 311.994L246.297 312.038L250.903 313.982ZM254.287 302.498L252.949 297.68L249.968 298.508L249.379 301.546L254.287 302.498ZM264.746 301.473L264.863 296.474L264.805 296.473H264.746V301.473ZM277.871 301.78L277.754 306.779L277.813 306.78H277.871V301.78ZM315.708 301.78L320.684 302.27L321.224 296.78H315.708V301.78ZM308.325 324.749L304.016 322.214L299.583 329.749H308.325V324.749ZM308.428 324.749L312.65 327.427L317.519 319.749H308.428V324.749ZM291.816 339.207L293.47 343.926L293.837 343.797L294.18 343.613L291.816 339.207ZM248.237 350.179L249.218 345.276L248.732 345.179H248.237V350.179ZM245.879 350.179V345.179H245.602L245.327 345.209L245.879 350.179ZM244.956 350.281V355.281H245.233L245.508 355.251L244.956 350.281ZM241.982 350.076L242.804 345.144L240.989 344.842L239.41 345.789L241.982 350.076ZM239.521 350.691L238.951 355.659L239.235 355.691H239.521V350.691ZM230.601 349.666L231.172 344.699L229.852 344.547L228.631 345.07L230.601 349.666ZM216.143 347.205L217.565 342.412L211.143 340.506V347.205H216.143ZM216.143 347.308L214.743 352.108L221.143 353.974V347.308H216.143ZM213.682 346.59L212.101 351.333L212.191 351.363L212.282 351.39L213.682 346.59ZM211.221 345.77L212.802 341.026L212.715 340.997L212.628 340.972L211.221 345.77ZM184.868 329.979L181.268 333.449L181.276 333.457L181.284 333.465L184.868 329.979ZM170.82 303.523L165.888 304.345L165.903 304.435L165.921 304.523L170.82 303.523ZM169.692 297.986L164.805 299.043L164.808 299.057L164.811 299.071L169.692 297.986ZM168.975 285.271L173.944 285.824L173.975 285.548V285.271H168.975ZM181.895 246.204L185.764 249.37L185.769 249.364L185.774 249.358L181.895 246.204ZM216.553 223.851L215.153 219.051L215.141 219.054L215.128 219.058L216.553 223.851ZM219.014 223.133L218.177 218.203L217.891 218.252L217.614 218.333L219.014 223.133ZM226.807 221.185L230.342 224.72L224.813 216.599L226.807 221.185ZM257.363 273.992V278.992H258.786L259.995 278.244L257.363 273.992ZM259.517 272.659L262.148 276.911L264.972 275.162L264.456 271.882L259.517 272.659ZM256.235 258.509L251.735 260.687L251.749 260.716L251.763 260.745L256.235 258.509ZM253.262 253.074L249.01 255.706L249.027 255.732L249.043 255.759L253.262 253.074ZM238.804 253.074L242.869 255.986L242.872 255.98L238.804 253.074ZM231.934 274.402L226.961 273.883L226.346 279.761L232.245 279.393L231.934 274.402ZM228.092 226.091C230.679 225.343 233.49 224.954 236.548 224.954V214.954C232.633 214.954 228.882 215.454 225.316 216.484L228.092 226.091ZM236.548 224.954C239.904 224.954 243.074 225.086 246.061 225.345L246.927 215.383C243.625 215.096 240.164 214.954 236.548 214.954V224.954ZM246.02 225.342L250.327 225.752L251.275 215.797L246.968 215.387L246.02 225.342ZM250.348 225.754C257.022 226.361 261.891 227.117 265.11 227.967L267.664 218.299C263.636 217.235 258.114 216.419 251.253 215.795L250.348 225.754ZM271.387 223.133V223.03H261.387V223.133H271.387ZM264.417 227.626L266.57 228.549L270.51 219.357L268.356 218.435L264.417 227.626ZM267.062 228.73C280.748 232.966 291.058 239.307 298.316 247.558L305.824 240.953C297.087 231.021 285.043 223.827 270.018 219.177L267.062 228.73ZM307.07 244.256V244.153H297.07V244.256H307.07ZM298.249 247.378C299.836 249.259 301.931 252.306 304.55 256.672L313.125 251.527C310.413 247.006 307.996 243.422 305.892 240.929L298.249 247.378ZM304.598 256.75C305.902 258.836 306.799 260.478 307.353 261.712C307.971 263.086 307.939 263.472 307.939 263.226H317.939C317.939 261.27 317.224 259.28 316.475 257.613C315.662 255.805 314.508 253.738 313.078 251.45L304.598 256.75ZM308.145 264.646L308.966 267.415L318.554 264.574L317.733 261.805L308.145 264.646ZM308.832 266.844L309.345 269.817L319.2 268.118L318.687 265.145L308.832 266.844ZM309.462 270.332C310.696 274.682 311.221 278.017 311.221 280.452H321.221C321.221 276.735 320.447 272.413 319.083 267.604L309.462 270.332ZM311.221 280.452C311.221 283.549 311.255 285.99 311.328 287.735L321.319 287.319C321.255 285.784 321.221 283.508 321.221 280.452H311.221ZM316.323 282.527H231.831V292.527H316.323V282.527ZM226.831 287.527V290.911H236.831V287.527H226.831ZM226.993 292.173C227.29 293.313 227.446 294.528 227.446 295.833H237.446C237.446 293.72 237.192 291.654 236.669 289.649L226.993 292.173ZM227.446 295.833C227.446 295.836 227.446 295.84 227.446 295.843C227.446 295.846 227.446 295.85 227.446 295.853C227.446 295.856 227.446 295.86 227.446 295.863C227.446 295.866 227.446 295.87 227.446 295.873C227.446 295.876 227.446 295.88 227.446 295.883C227.446 295.886 227.446 295.89 227.446 295.893C227.446 295.896 227.446 295.9 227.446 295.903C227.446 295.906 227.446 295.91 227.446 295.913C227.446 295.916 227.446 295.919 227.446 295.923C227.446 295.926 227.446 295.929 227.446 295.933C227.446 295.936 227.446 295.939 227.446 295.943C227.446 295.946 227.446 295.949 227.446 295.953C227.446 295.956 227.446 295.959 227.446 295.963C227.446 295.966 227.446 295.969 227.446 295.972C227.446 295.976 227.446 295.979 227.446 295.982C227.446 295.986 227.446 295.989 227.446 295.992C227.446 295.996 227.446 295.999 227.446 296.002C227.446 296.005 227.446 296.009 227.446 296.012C227.446 296.015 227.446 296.019 227.446 296.022C227.446 296.025 227.446 296.028 227.446 296.032C227.446 296.035 227.446 296.038 227.446 296.042C227.446 296.045 227.446 296.048 227.446 296.051C227.446 296.055 227.446 296.058 227.446 296.061C227.446 296.065 227.446 296.068 227.446 296.071C227.446 296.074 227.446 296.078 227.446 296.081C227.446 296.084 227.446 296.087 227.446 296.091C227.446 296.094 227.446 296.097 227.446 296.101C227.446 296.104 227.446 296.107 227.446 296.11C227.446 296.114 227.446 296.117 227.446 296.12C227.446 296.123 227.446 296.127 227.446 296.13C227.446 296.133 227.446 296.136 227.446 296.14C227.446 296.143 227.446 296.146 227.446 296.149C227.446 296.153 227.446 296.156 227.446 296.159C227.446 296.162 227.446 296.166 227.446 296.169C227.446 296.172 227.446 296.175 227.446 296.179C227.446 296.182 227.446 296.185 227.446 296.188C227.446 296.192 227.446 296.195 227.446 296.198C227.446 296.201 227.446 296.205 227.446 296.208C227.446 296.211 227.446 296.214 227.446 296.218C227.446 296.221 227.446 296.224 227.446 296.227C227.446 296.231 227.446 296.234 227.446 296.237C227.446 296.24 227.446 296.243 227.446 296.247C227.446 296.25 227.446 296.253 227.446 296.256C227.446 296.26 227.446 296.263 227.446 296.266C227.446 296.269 227.446 296.272 227.446 296.276C227.446 296.279 227.446 296.282 227.446 296.285C227.446 296.289 227.446 296.292 227.446 296.295C227.446 296.298 227.446 296.301 227.446 296.305C227.446 296.308 227.446 296.311 227.446 296.314C227.446 296.317 227.446 296.321 227.446 296.324C227.446 296.327 227.446 296.33 227.446 296.334C227.446 296.337 227.446 296.34 227.446 296.343C227.446 296.346 227.446 296.35 227.446 296.353C227.446 296.356 227.446 296.359 227.446 296.362C227.446 296.366 227.446 296.369 227.446 296.372C227.446 296.375 227.446 296.378 227.446 296.382C227.446 296.385 227.446 296.388 227.446 296.391C227.446 296.394 227.446 296.397 227.446 296.401C227.446 296.404 227.446 296.407 227.446 296.41C227.446 296.413 227.446 296.417 227.446 296.42C227.446 296.423 227.446 296.426 227.446 296.429C227.446 296.432 227.446 296.436 227.446 296.439C227.446 296.442 227.446 296.445 227.446 296.448C227.446 296.452 227.446 296.455 227.446 296.458C227.446 296.461 227.446 296.464 227.446 296.467C227.446 296.471 227.446 296.474 227.446 296.477C227.446 296.48 227.446 296.483 227.446 296.486C227.446 296.49 227.446 296.493 227.446 296.496C227.446 296.499 227.446 296.502 227.446 296.505C227.446 296.508 227.446 296.512 227.446 296.515C227.446 296.518 227.446 296.521 227.446 296.524C227.446 296.527 227.446 296.531 227.446 296.534C227.446 296.537 227.446 296.54 227.446 296.543C227.446 296.546 227.446 296.549 227.446 296.553C227.446 296.556 227.446 296.559 227.446 296.562C227.446 296.565 227.446 296.568 227.446 296.571C227.446 296.575 227.446 296.578 227.446 296.581C227.446 296.584 227.446 296.587 227.446 296.59C227.446 296.593 227.446 296.597 227.446 296.6C227.446 296.603 227.446 296.606 227.446 296.609C227.446 296.612 227.446 296.615 227.446 296.618C227.446 296.622 227.446 296.625 227.446 296.628C227.446 296.631 227.446 296.634 227.446 296.637C227.446 296.64 227.446 296.643 227.446 296.647C227.446 296.65 227.446 296.653 227.446 296.656C227.446 296.659 227.446 296.662 227.446 296.665C227.446 296.668 227.446 296.671 227.446 296.675C227.446 296.678 227.446 296.681 227.446 296.684C227.446 296.687 227.446 296.69 227.446 296.693C227.446 296.696 227.446 296.699 227.446 296.703C227.446 296.706 227.446 296.709 227.446 296.712C227.446 296.715 227.446 296.718 227.446 296.721C227.446 296.724 227.446 296.727 227.446 296.73C227.446 296.734 227.446 296.737 227.446 296.74C227.446 296.743 227.446 296.746 227.446 296.749C227.446 296.752 227.446 296.755 227.446 296.758C227.446 296.761 227.446 296.764 227.446 296.768C227.446 296.771 227.446 296.774 227.446 296.777C227.446 296.78 227.446 296.783 227.446 296.786C227.446 296.789 227.446 296.792 227.446 296.795C227.446 296.798 227.446 296.801 227.446 296.804C227.446 296.808 227.446 296.811 227.446 296.814C227.446 296.817 227.446 296.82 227.446 296.823C227.446 296.826 227.446 296.829 227.446 296.832C227.446 296.835 227.446 296.838 227.446 296.841C227.446 296.844 227.446 296.847 227.446 296.85C227.446 296.854 227.446 296.857 227.446 296.86C227.446 296.863 227.446 296.866 227.446 296.869C227.446 296.872 227.446 296.875 227.446 296.878C227.446 296.881 227.446 296.884 227.446 296.887C227.446 296.89 227.446 296.893 227.446 296.896C227.446 296.899 227.446 296.902 227.446 296.905C227.446 296.909 227.446 296.912 227.446 296.915C227.446 296.918 227.446 296.921 227.446 296.924C227.446 296.927 227.446 296.93 227.446 296.933C227.446 296.936 227.446 296.939 227.446 296.942C227.446 296.945 227.446 296.948 227.446 296.951C227.446 296.954 227.446 296.957 227.446 296.96C227.446 296.963 227.446 296.966 227.446 296.969C227.446 296.972 227.446 296.975 227.446 296.978C227.446 296.981 227.446 296.984 227.446 296.987C227.446 296.99 227.446 296.993 227.446 296.996C227.446 296.999 227.446 297.002 227.446 297.006C227.446 297.009 227.446 297.012 227.446 297.015C227.446 297.018 227.446 297.021 227.446 297.024C227.446 297.027 227.446 297.03 227.446 297.033C227.446 297.036 227.446 297.039 227.446 297.042C227.446 297.045 227.446 297.048 227.446 297.051C227.446 297.054 227.446 297.057 227.446 297.06C227.446 297.063 227.446 297.066 227.446 297.069C227.446 297.072 227.446 297.075 227.446 297.078C227.446 297.081 227.446 297.084 227.446 297.087C227.446 297.09 227.446 297.093 227.446 297.096C227.446 297.099 227.446 297.102 227.446 297.105C227.446 297.108 227.446 297.111 227.446 297.114C227.446 297.117 227.446 297.12 227.446 297.123C227.446 297.125 227.446 297.128 227.446 297.131C227.446 297.134 227.446 297.137 227.446 297.14C227.446 297.143 227.446 297.146 227.446 297.149C227.446 297.152 227.446 297.155 227.446 297.158C227.446 297.161 227.446 297.164 227.446 297.167C227.446 297.17 227.446 297.173 227.446 297.176C227.446 297.179 227.446 297.182 227.446 297.185C227.446 297.188 227.446 297.191 227.446 297.194C227.446 297.197 227.446 297.2 227.446 297.203C227.446 297.206 227.446 297.209 227.446 297.212C227.446 297.215 227.446 297.218 227.446 297.22C227.446 297.223 227.446 297.226 227.446 297.229C227.446 297.232 227.446 297.235 227.446 297.238C227.446 297.241 227.446 297.244 227.446 297.247C227.446 297.25 227.446 297.253 227.446 297.256C227.446 297.259 227.446 297.262 227.446 297.265C227.446 297.268 227.446 297.271 227.446 297.274C227.446 297.276 227.446 297.279 227.446 297.282C227.446 297.285 227.446 297.288 227.446 297.291C227.446 297.294 227.446 297.297 227.446 297.3C227.446 297.303 227.446 297.306 227.446 297.309C227.446 297.312 227.446 297.315 227.446 297.318C227.446 297.32 227.446 297.323 227.446 297.326C227.446 297.329 227.446 297.332 227.446 297.335C227.446 297.338 227.446 297.341 227.446 297.344C227.446 297.347 227.446 297.35 227.446 297.353C227.446 297.355 227.446 297.358 227.446 297.361C227.446 297.364 227.446 297.367 227.446 297.37C227.446 297.373 227.446 297.376 227.446 297.379C227.446 297.382 227.446 297.385 227.446 297.387C227.446 297.39 227.446 297.393 227.446 297.396C227.446 297.399 227.446 297.402 227.446 297.405C227.446 297.408 227.446 297.411 227.446 297.414C227.446 297.416 227.446 297.419 227.446 297.422C227.446 297.425 227.446 297.428 227.446 297.431C227.446 297.434 227.446 297.437 227.446 297.44C227.446 297.443 227.446 297.445 227.446 297.448C227.446 297.451 227.446 297.454 227.446 297.457C227.446 297.46 227.446 297.463 227.446 297.466C227.446 297.468 227.446 297.471 227.446 297.474C227.446 297.477 227.446 297.48 227.446 297.483C227.446 297.486 227.446 297.489 227.446 297.491C227.446 297.494 227.446 297.497 227.446 297.5C227.446 297.503 227.446 297.506 227.446 297.509C227.446 297.512 227.446 297.514 227.446 297.517C227.446 297.52 227.446 297.523 227.446 297.526C227.446 297.529 227.446 297.532 227.446 297.534C227.446 297.537 227.446 297.54 227.446 297.543C227.446 297.546 227.446 297.549 227.446 297.552C227.446 297.555 227.446 297.557 227.446 297.56C227.446 297.563 227.446 297.566 227.446 297.569C227.446 297.572 227.446 297.574 227.446 297.577C227.446 297.58 227.446 297.583 227.446 297.586C227.446 297.589 227.446 297.592 227.446 297.594C227.446 297.597 227.446 297.6 227.446 297.603C227.446 297.606 227.446 297.609 227.446 297.611C227.446 297.614 227.446 297.617 227.446 297.62C227.446 297.623 227.446 297.626 227.446 297.628C227.446 297.631 227.446 297.634 227.446 297.637C227.446 297.64 227.446 297.643 227.446 297.645C227.446 297.648 227.446 297.651 227.446 297.654C227.446 297.657 227.446 297.66 227.446 297.662C227.446 297.665 227.446 297.668 227.446 297.671C227.446 297.674 227.446 297.676 227.446 297.679C227.446 297.682 227.446 297.685 227.446 297.688C227.446 297.691 227.446 297.693 227.446 297.696C227.446 297.699 227.446 297.702 227.446 297.705C227.446 297.707 227.446 297.71 227.446 297.713C227.446 297.716 227.446 297.719 227.446 297.721C227.446 297.724 227.446 297.727 227.446 297.73C227.446 297.733 227.446 297.735 227.446 297.738C227.446 297.741 227.446 297.744 227.446 297.747C227.446 297.749 227.446 297.752 227.446 297.755C227.446 297.758 227.446 297.761 227.446 297.763C227.446 297.766 227.446 297.769 227.446 297.772C227.446 297.775 227.446 297.777 227.446 297.78C227.446 297.783 227.446 297.786 227.446 297.788C227.446 297.791 227.446 297.794 227.446 297.797C227.446 297.8 227.446 297.802 227.446 297.805C227.446 297.808 227.446 297.811 227.446 297.813C227.446 297.816 227.446 297.819 227.446 297.822C227.446 297.825 227.446 297.827 227.446 297.83C227.446 297.833 227.446 297.836 227.446 297.838C227.446 297.841 227.446 297.844 227.446 297.847C227.446 297.849 227.446 297.852 227.446 297.855C227.446 297.858 227.446 297.86 227.446 297.863C227.446 297.866 227.446 297.869 227.446 297.872C227.446 297.874 227.446 297.877 227.446 297.88C227.446 297.883 227.446 297.885 227.446 297.888C227.446 297.891 227.446 297.894 227.446 297.896C227.446 297.899 227.446 297.902 227.446 297.905C227.446 297.907 227.446 297.91 227.446 297.913C227.446 297.916 227.446 297.918 227.446 297.921C227.446 297.924 227.446 297.926 227.446 297.929C227.446 297.932 227.446 297.935 227.446 297.937C227.446 297.94 227.446 297.943 227.446 297.946C227.446 297.948 227.446 297.951 227.446 297.954C227.446 297.957 227.446 297.959 227.446 297.962C227.446 297.965 227.446 297.967 227.446 297.97C227.446 297.973 227.446 297.976 227.446 297.978C227.446 297.981 227.446 297.984 227.446 297.987C227.446 297.989 227.446 297.992 227.446 297.995C227.446 297.997 227.446 298 227.446 298.003C227.446 298.006 227.446 298.008 227.446 298.011C227.446 298.014 227.446 298.016 227.446 298.019C227.446 298.022 227.446 298.025 227.446 298.027C227.446 298.03 227.446 298.033 227.446 298.035C227.446 298.038 227.446 298.041 227.446 298.043C227.446 298.046 227.446 298.049 227.446 298.052C227.446 298.054 227.446 298.057 227.446 298.06C227.446 298.062 227.446 298.065 227.446 298.068C227.446 298.07 227.446 298.073 227.446 298.076C227.446 298.078 227.446 298.081 227.446 298.084C227.446 298.087 227.446 298.089 227.446 298.092C227.446 298.095 227.446 298.097 227.446 298.1C227.446 298.103 227.446 298.105 227.446 298.108C227.446 298.111 227.446 298.113 227.446 298.116C227.446 298.119 227.446 298.121 227.446 298.124C227.446 298.127 227.446 298.129 227.446 298.132C227.446 298.135 227.446 298.137 227.446 298.14C227.446 298.143 227.446 298.145 227.446 298.148C227.446 298.151 227.446 298.153 227.446 298.156C227.446 298.159 227.446 298.161 227.446 298.164C227.446 298.167 227.446 298.169 227.446 298.172C227.446 298.175 227.446 298.177 227.446 298.18C227.446 298.183 227.446 298.185 227.446 298.188C227.446 298.191 227.446 298.193 227.446 298.196C227.446 298.199 227.446 298.201 227.446 298.204C227.446 298.207 227.446 298.209 227.446 298.212C227.446 298.215 227.446 298.217 227.446 298.22C227.446 298.222 227.446 298.225 227.446 298.228C227.446 298.23 227.446 298.233 227.446 298.236C227.446 298.238 227.446 298.241 227.446 298.244C227.446 298.246 227.446 298.249 227.446 298.252C227.446 298.254 227.446 298.257 227.446 298.259C227.446 298.262 227.446 298.265 227.446 298.267C227.446 298.27 227.446 298.273 227.446 298.275C227.446 298.278 227.446 298.28 227.446 298.283C227.446 298.286 227.446 298.288 227.446 298.291C227.446 298.294 227.446 298.296 227.446 298.299C227.446 298.301 227.446 298.304 227.446 298.307C227.446 298.309 227.446 298.312 227.446 298.314C227.446 298.317 227.446 298.32 227.446 298.322C227.446 298.325 227.446 298.328 227.446 298.33C227.446 298.333 227.446 298.335 227.446 298.338C227.446 298.341 227.446 298.343 227.446 298.346C227.446 298.348 227.446 298.351 227.446 298.354C227.446 298.356 227.446 298.359 227.446 298.361C227.446 298.364 227.446 298.367 227.446 298.369C227.446 298.372 227.446 298.374 227.446 298.377C227.446 298.38 227.446 298.382 227.446 298.385C227.446 298.387 227.446 298.39 227.446 298.392C227.446 298.395 227.446 298.398 227.446 298.4C227.446 298.403 227.446 298.405 227.446 298.408C227.446 298.411 227.446 298.413 227.446 298.416C227.446 298.418 227.446 298.421 227.446 298.423C227.446 298.426 227.446 298.429 227.446 298.431C227.446 298.434 227.446 298.436 227.446 298.439C227.446 298.441 227.446 298.444 227.446 298.447C227.446 298.449 227.446 298.452 227.446 298.454C227.446 298.457 227.446 298.459 227.446 298.462C227.446 298.465 227.446 298.467 227.446 298.47C227.446 298.472 227.446 298.475 227.446 298.477C227.446 298.48 227.446 298.482 227.446 298.485C227.446 298.488 227.446 298.49 227.446 298.493C227.446 298.495 227.446 298.498 227.446 298.5C227.446 298.503 227.446 298.505 227.446 298.508C227.446 298.511 227.446 298.513 227.446 298.516C227.446 298.518 227.446 298.521 227.446 298.523C227.446 298.526 227.446 298.528 227.446 298.531C227.446 298.533 227.446 298.536 227.446 298.539C227.446 298.541 227.446 298.544 227.446 298.546C227.446 298.549 227.446 298.551 227.446 298.554C227.446 298.556 227.446 298.559 227.446 298.561C227.446 298.564 227.446 298.566 227.446 298.569C227.446 298.571 227.446 298.574 227.446 298.576C227.446 298.579 227.446 298.582 227.446 298.584C227.446 298.587 227.446 298.589 227.446 298.592C227.446 298.594 227.446 298.597 227.446 298.599C227.446 298.602 227.446 298.604 227.446 298.607C227.446 298.609 227.446 298.612 227.446 298.614C227.446 298.617 227.446 298.619 227.446 298.622C227.446 298.624 227.446 298.627 227.446 298.629C227.446 298.632 227.446 298.634 227.446 298.637C227.446 298.639 227.446 298.642 227.446 298.644C227.446 298.647 227.446 298.649 227.446 298.652C227.446 298.654 227.446 298.657 227.446 298.659C227.446 298.662 227.446 298.664 227.446 298.667C227.446 298.669 227.446 298.672 227.446 298.674C227.446 298.677 227.446 298.679 227.446 298.682C227.446 298.684 227.446 298.687 227.446 298.689C227.446 298.692 227.446 298.694 227.446 298.697C227.446 298.699 227.446 298.702 227.446 298.704C227.446 298.707 227.446 298.709 227.446 298.712C227.446 298.714 227.446 298.716 227.446 298.719C227.446 298.721 227.446 298.724 227.446 298.726C227.446 298.729 227.446 298.731 227.446 298.734C227.446 298.736 227.446 298.739 227.446 298.741C227.446 298.744 227.446 298.746 227.446 298.749C227.446 298.751 227.446 298.754 227.446 298.756C227.446 298.758 227.446 298.761 227.446 298.763C227.446 298.766 227.446 298.768 227.446 298.771C227.446 298.773 227.446 298.776 227.446 298.778C227.446 298.781 227.446 298.783 227.446 298.785C227.446 298.788 227.446 298.79 227.446 298.793C227.446 298.795 227.446 298.798 227.446 298.8C227.446 298.803 227.446 298.805 227.446 298.807C227.446 298.81 227.446 298.812 227.446 298.815C227.446 298.817 227.446 298.82 227.446 298.822C227.446 298.825 227.446 298.827 227.446 298.829C227.446 298.832 227.446 298.834 227.446 298.837C227.446 298.839 227.446 298.842 227.446 298.844C227.446 298.846 227.446 298.849 227.446 298.851C227.446 298.854 227.446 298.856 227.446 298.859C227.446 298.861 227.446 298.863 227.446 298.866C227.446 298.868 227.446 298.871 227.446 298.873C227.446 298.876 227.446 298.878 227.446 298.88C227.446 298.883 227.446 298.885 227.446 298.888C227.446 298.89 227.446 298.892 227.446 298.895C227.446 298.897 227.446 298.9 227.446 298.902C227.446 298.905 227.446 298.907 227.446 298.909C227.446 298.912 227.446 298.914 227.446 298.917C227.446 298.919 227.446 298.921 227.446 298.924C227.446 298.926 227.446 298.929 227.446 298.931C227.446 298.933 227.446 298.936 227.446 298.938C227.446 298.941 227.446 298.943 227.446 298.945C227.446 298.948 227.446 298.95 227.446 298.953C227.446 298.955 227.446 298.957 227.446 298.96C227.446 298.962 227.446 298.964 227.446 298.967C227.446 298.969 227.446 298.972 227.446 298.974C227.446 298.976 227.446 298.979 227.446 298.981C227.446 298.984 227.446 298.986 227.446 298.988C227.446 298.991 227.446 298.993 227.446 298.995C227.446 298.998 227.446 299 227.446 299.003C227.446 299.005 227.446 299.007 227.446 299.01C227.446 299.012 227.446 299.014 227.446 299.017C227.446 299.019 227.446 299.021 227.446 299.024C227.446 299.026 227.446 299.029 227.446 299.031C227.446 299.033 227.446 299.036 227.446 299.038C227.446 299.04 227.446 299.043 227.446 299.045C227.446 299.047 227.446 299.05 227.446 299.052C227.446 299.055 227.446 299.057 227.446 299.059C227.446 299.062 227.446 299.064 227.446 299.066C227.446 299.069 227.446 299.071 227.446 299.073C227.446 299.076 227.446 299.078 227.446 299.08C227.446 299.083 227.446 299.085 227.446 299.087C227.446 299.09 227.446 299.092 227.446 299.094C227.446 299.097 227.446 299.099 227.446 299.101C227.446 299.104 227.446 299.106 227.446 299.108C227.446 299.111 227.446 299.113 227.446 299.115C227.446 299.118 227.446 299.12 227.446 299.122C227.446 299.125 227.446 299.127 227.446 299.129C227.446 299.132 227.446 299.134 227.446 299.136C227.446 299.139 227.446 299.141 227.446 299.143C227.446 299.146 227.446 299.148 227.446 299.15C227.446 299.153 227.446 299.155 227.446 299.157C227.446 299.16 227.446 299.162 227.446 299.164C227.446 299.167 227.446 299.169 227.446 299.171C227.446 299.173 227.446 299.176 227.446 299.178C227.446 299.18 227.446 299.183 227.446 299.185C227.446 299.187 227.446 299.19 227.446 299.192C227.446 299.194 227.446 299.197 227.446 299.199C227.446 299.201 227.446 299.203 227.446 299.206C227.446 299.208 227.446 299.21 227.446 299.213C227.446 299.215 227.446 299.217 227.446 299.219C227.446 299.222 227.446 299.224 227.446 299.226C227.446 299.229 227.446 299.231 227.446 299.233C227.446 299.235 227.446 299.238 227.446 299.24C227.446 299.242 227.446 299.245 227.446 299.247C227.446 299.249 227.446 299.251 227.446 299.254C227.446 299.256 227.446 299.258 227.446 299.261C227.446 299.263 227.446 299.265 227.446 299.267C227.446 299.27 227.446 299.272 227.446 299.274C227.446 299.277 227.446 299.279 227.446 299.281C227.446 299.283 227.446 299.286 227.446 299.288C227.446 299.29 227.446 299.292 227.446 299.295C227.446 299.297 227.446 299.299 227.446 299.301C227.446 299.304 227.446 299.306 227.446 299.308C227.446 299.31 227.446 299.313 227.446 299.315C227.446 299.317 227.446 299.319 227.446 299.322C227.446 299.324 227.446 299.326 227.446 299.328C227.446 299.331 227.446 299.333 227.446 299.335C227.446 299.337 227.446 299.34 227.446 299.342C227.446 299.344 227.446 299.346 227.446 299.349C227.446 299.351 227.446 299.353 227.446 299.355C227.446 299.358 227.446 299.36 227.446 299.362C227.446 299.364 227.446 299.367 227.446 299.369C227.446 299.371 227.446 299.373 227.446 299.376C227.446 299.378 227.446 299.38 227.446 299.382C227.446 299.384 227.446 299.387 227.446 299.389C227.446 299.391 227.446 299.393 227.446 299.396C227.446 299.398 227.446 299.4 227.446 299.402C227.446 299.405 227.446 299.407 227.446 299.409C227.446 299.411 227.446 299.413 227.446 299.416C227.446 299.418 227.446 299.42 227.446 299.422C227.446 299.424 227.446 299.427 227.446 299.429C227.446 299.431 227.446 299.433 227.446 299.436C227.446 299.438 227.446 299.44 227.446 299.442C227.446 299.444 227.446 299.447 227.446 299.449C227.446 299.451 227.446 299.453 227.446 299.455C227.446 299.458 227.446 299.46 227.446 299.462C227.446 299.464 227.446 299.466 227.446 299.469C227.446 299.471 227.446 299.473 227.446 299.475C227.446 299.477 227.446 299.48 227.446 299.482C227.446 299.484 227.446 299.486 227.446 299.488C227.446 299.49 227.446 299.493 227.446 299.495C227.446 299.497 227.446 299.499 227.446 299.501C227.446 299.504 227.446 299.506 227.446 299.508C227.446 299.51 227.446 299.512 227.446 299.514C227.446 299.517 227.446 299.519 227.446 299.521C227.446 299.523 227.446 299.525 227.446 299.528C227.446 299.53 227.446 299.532 227.446 299.534C227.446 299.536 227.446 299.538 227.446 299.541C227.446 299.543 227.446 299.545 227.446 299.547C227.446 299.549 227.446 299.551 227.446 299.554C227.446 299.556 227.446 299.558 227.446 299.56C227.446 299.562 227.446 299.564 227.446 299.566C227.446 299.569 227.446 299.571 227.446 299.573C227.446 299.575 227.446 299.577 227.446 299.579C227.446 299.582 227.446 299.584 227.446 299.586C227.446 299.588 227.446 299.59 227.446 299.592C227.446 299.594 227.446 299.597 227.446 299.599C227.446 299.601 227.446 299.603 227.446 299.605C227.446 299.607 227.446 299.609 227.446 299.612C227.446 299.614 227.446 299.616 227.446 299.618C227.446 299.62 227.446 299.622 227.446 299.624C227.446 299.627 227.446 299.629 227.446 299.631C227.446 299.633 227.446 299.635 227.446 299.637C227.446 299.639 227.446 299.641 227.446 299.644C227.446 299.646 227.446 299.648 227.446 299.65C227.446 299.652 227.446 299.654 227.446 299.656C227.446 299.658 227.446 299.661 227.446 299.663C227.446 299.665 227.446 299.667 227.446 299.669C227.446 299.671 227.446 299.673 227.446 299.675C227.446 299.677 227.446 299.68 227.446 299.682C227.446 299.684 227.446 299.686 227.446 299.688C227.446 299.69 227.446 299.692 227.446 299.694C227.446 299.696 227.446 299.699 227.446 299.701C227.446 299.703 227.446 299.705 227.446 299.707C227.446 299.709 227.446 299.711 227.446 299.713C227.446 299.715 227.446 299.717 227.446 299.719C227.446 299.722 227.446 299.724 227.446 299.726C227.446 299.728 227.446 299.73 227.446 299.732C227.446 299.734 227.446 299.736 227.446 299.738C227.446 299.74 227.446 299.742 227.446 299.745C227.446 299.747 227.446 299.749 227.446 299.751C227.446 299.753 227.446 299.755 227.446 299.757C227.446 299.759 227.446 299.761 227.446 299.763C227.446 299.765 227.446 299.767 227.446 299.769C227.446 299.772 227.446 299.774 227.446 299.776C227.446 299.778 227.446 299.78 227.446 299.782C227.446 299.784 227.446 299.786 227.446 299.788C227.446 299.79 227.446 299.792 227.446 299.794C227.446 299.796 227.446 299.798 227.446 299.8C227.446 299.803 227.446 299.805 227.446 299.807C227.446 299.809 227.446 299.811 227.446 299.813C227.446 299.815 227.446 299.817 227.446 299.819C227.446 299.821 227.446 299.823 227.446 299.825C227.446 299.827 227.446 299.829 227.446 299.831C227.446 299.833 227.446 299.835 227.446 299.837C227.446 299.839 227.446 299.842 227.446 299.844C227.446 299.846 227.446 299.848 227.446 299.85C227.446 299.852 227.446 299.854 227.446 299.856C227.446 299.858 227.446 299.86 227.446 299.862C227.446 299.864 227.446 299.866 227.446 299.868C227.446 299.87 227.446 299.872 227.446 299.874C227.446 299.876 227.446 299.878 227.446 299.88C227.446 299.882 227.446 299.884 227.446 299.886C227.446 299.888 227.446 299.89 227.446 299.892C227.446 299.894 227.446 299.896 227.446 299.898C227.446 299.9 227.446 299.902 227.446 299.904C227.446 299.906 227.446 299.908 227.446 299.91C227.446 299.912 227.446 299.915 227.446 299.917C227.446 299.919 227.446 299.921 227.446 299.923C227.446 299.925 227.446 299.927 227.446 299.929C227.446 299.931 227.446 299.933 227.446 299.935H237.446C237.446 299.933 237.446 299.931 237.446 299.929C237.446 299.927 237.446 299.925 237.446 299.923C237.446 299.921 237.446 299.919 237.446 299.917C237.446 299.915 237.446 299.912 237.446 299.91C237.446 299.908 237.446 299.906 237.446 299.904C237.446 299.902 237.446 299.9 237.446 299.898C237.446 299.896 237.446 299.894 237.446 299.892C237.446 299.89 237.446 299.888 237.446 299.886C237.446 299.884 237.446 299.882 237.446 299.88C237.446 299.878 237.446 299.876 237.446 299.874C237.446 299.872 237.446 299.87 237.446 299.868C237.446 299.866 237.446 299.864 237.446 299.862C237.446 299.86 237.446 299.858 237.446 299.856C237.446 299.854 237.446 299.852 237.446 299.85C237.446 299.848 237.446 299.846 237.446 299.844C237.446 299.842 237.446 299.839 237.446 299.837C237.446 299.835 237.446 299.833 237.446 299.831C237.446 299.829 237.446 299.827 237.446 299.825C237.446 299.823 237.446 299.821 237.446 299.819C237.446 299.817 237.446 299.815 237.446 299.813C237.446 299.811 237.446 299.809 237.446 299.807C237.446 299.805 237.446 299.803 237.446 299.8C237.446 299.798 237.446 299.796 237.446 299.794C237.446 299.792 237.446 299.79 237.446 299.788C237.446 299.786 237.446 299.784 237.446 299.782C237.446 299.78 237.446 299.778 237.446 299.776C237.446 299.774 237.446 299.772 237.446 299.769C237.446 299.767 237.446 299.765 237.446 299.763C237.446 299.761 237.446 299.759 237.446 299.757C237.446 299.755 237.446 299.753 237.446 299.751C237.446 299.749 237.446 299.747 237.446 299.745C237.446 299.742 237.446 299.74 237.446 299.738C237.446 299.736 237.446 299.734 237.446 299.732C237.446 299.73 237.446 299.728 237.446 299.726C237.446 299.724 237.446 299.722 237.446 299.719C237.446 299.717 237.446 299.715 237.446 299.713C237.446 299.711 237.446 299.709 237.446 299.707C237.446 299.705 237.446 299.703 237.446 299.701C237.446 299.699 237.446 299.696 237.446 299.694C237.446 299.692 237.446 299.69 237.446 299.688C237.446 299.686 237.446 299.684 237.446 299.682C237.446 299.68 237.446 299.677 237.446 299.675C237.446 299.673 237.446 299.671 237.446 299.669C237.446 299.667 237.446 299.665 237.446 299.663C237.446 299.661 237.446 299.658 237.446 299.656C237.446 299.654 237.446 299.652 237.446 299.65C237.446 299.648 237.446 299.646 237.446 299.644C237.446 299.641 237.446 299.639 237.446 299.637C237.446 299.635 237.446 299.633 237.446 299.631C237.446 299.629 237.446 299.627 237.446 299.624C237.446 299.622 237.446 299.62 237.446 299.618C237.446 299.616 237.446 299.614 237.446 299.612C237.446 299.609 237.446 299.607 237.446 299.605C237.446 299.603 237.446 299.601 237.446 299.599C237.446 299.597 237.446 299.594 237.446 299.592C237.446 299.59 237.446 299.588 237.446 299.586C237.446 299.584 237.446 299.582 237.446 299.579C237.446 299.577 237.446 299.575 237.446 299.573C237.446 299.571 237.446 299.569 237.446 299.566C237.446 299.564 237.446 299.562 237.446 299.56C237.446 299.558 237.446 299.556 237.446 299.554C237.446 299.551 237.446 299.549 237.446 299.547C237.446 299.545 237.446 299.543 237.446 299.541C237.446 299.538 237.446 299.536 237.446 299.534C237.446 299.532 237.446 299.53 237.446 299.528C237.446 299.525 237.446 299.523 237.446 299.521C237.446 299.519 237.446 299.517 237.446 299.514C237.446 299.512 237.446 299.51 237.446 299.508C237.446 299.506 237.446 299.504 237.446 299.501C237.446 299.499 237.446 299.497 237.446 299.495C237.446 299.493 237.446 299.49 237.446 299.488C237.446 299.486 237.446 299.484 237.446 299.482C237.446 299.48 237.446 299.477 237.446 299.475C237.446 299.473 237.446 299.471 237.446 299.469C237.446 299.466 237.446 299.464 237.446 299.462C237.446 299.46 237.446 299.458 237.446 299.455C237.446 299.453 237.446 299.451 237.446 299.449C237.446 299.447 237.446 299.444 237.446 299.442C237.446 299.44 237.446 299.438 237.446 299.436C237.446 299.433 237.446 299.431 237.446 299.429C237.446 299.427 237.446 299.424 237.446 299.422C237.446 299.42 237.446 299.418 237.446 299.416C237.446 299.413 237.446 299.411 237.446 299.409C237.446 299.407 237.446 299.405 237.446 299.402C237.446 299.4 237.446 299.398 237.446 299.396C237.446 299.393 237.446 299.391 237.446 299.389C237.446 299.387 237.446 299.384 237.446 299.382C237.446 299.38 237.446 299.378 237.446 299.376C237.446 299.373 237.446 299.371 237.446 299.369C237.446 299.367 237.446 299.364 237.446 299.362C237.446 299.36 237.446 299.358 237.446 299.355C237.446 299.353 237.446 299.351 237.446 299.349C237.446 299.346 237.446 299.344 237.446 299.342C237.446 299.34 237.446 299.337 237.446 299.335C237.446 299.333 237.446 299.331 237.446 299.328C237.446 299.326 237.446 299.324 237.446 299.322C237.446 299.319 237.446 299.317 237.446 299.315C237.446 299.313 237.446 299.31 237.446 299.308C237.446 299.306 237.446 299.304 237.446 299.301C237.446 299.299 237.446 299.297 237.446 299.295C237.446 299.292 237.446 299.29 237.446 299.288C237.446 299.286 237.446 299.283 237.446 299.281C237.446 299.279 237.446 299.277 237.446 299.274C237.446 299.272 237.446 299.27 237.446 299.267C237.446 299.265 237.446 299.263 237.446 299.261C237.446 299.258 237.446 299.256 237.446 299.254C237.446 299.251 237.446 299.249 237.446 299.247C237.446 299.245 237.446 299.242 237.446 299.24C237.446 299.238 237.446 299.235 237.446 299.233C237.446 299.231 237.446 299.229 237.446 299.226C237.446 299.224 237.446 299.222 237.446 299.219C237.446 299.217 237.446 299.215 237.446 299.213C237.446 299.21 237.446 299.208 237.446 299.206C237.446 299.203 237.446 299.201 237.446 299.199C237.446 299.197 237.446 299.194 237.446 299.192C237.446 299.19 237.446 299.187 237.446 299.185C237.446 299.183 237.446 299.18 237.446 299.178C237.446 299.176 237.446 299.173 237.446 299.171C237.446 299.169 237.446 299.167 237.446 299.164C237.446 299.162 237.446 299.16 237.446 299.157C237.446 299.155 237.446 299.153 237.446 299.15C237.446 299.148 237.446 299.146 237.446 299.143C237.446 299.141 237.446 299.139 237.446 299.136C237.446 299.134 237.446 299.132 237.446 299.129C237.446 299.127 237.446 299.125 237.446 299.122C237.446 299.12 237.446 299.118 237.446 299.115C237.446 299.113 237.446 299.111 237.446 299.108C237.446 299.106 237.446 299.104 237.446 299.101C237.446 299.099 237.446 299.097 237.446 299.094C237.446 299.092 237.446 299.09 237.446 299.087C237.446 299.085 237.446 299.083 237.446 299.08C237.446 299.078 237.446 299.076 237.446 299.073C237.446 299.071 237.446 299.069 237.446 299.066C237.446 299.064 237.446 299.062 237.446 299.059C237.446 299.057 237.446 299.055 237.446 299.052C237.446 299.05 237.446 299.047 237.446 299.045C237.446 299.043 237.446 299.04 237.446 299.038C237.446 299.036 237.446 299.033 237.446 299.031C237.446 299.029 237.446 299.026 237.446 299.024C237.446 299.021 237.446 299.019 237.446 299.017C237.446 299.014 237.446 299.012 237.446 299.01C237.446 299.007 237.446 299.005 237.446 299.003C237.446 299 237.446 298.998 237.446 298.995C237.446 298.993 237.446 298.991 237.446 298.988C237.446 298.986 237.446 298.984 237.446 298.981C237.446 298.979 237.446 298.976 237.446 298.974C237.446 298.972 237.446 298.969 237.446 298.967C237.446 298.964 237.446 298.962 237.446 298.96C237.446 298.957 237.446 298.955 237.446 298.953C237.446 298.95 237.446 298.948 237.446 298.945C237.446 298.943 237.446 298.941 237.446 298.938C237.446 298.936 237.446 298.933 237.446 298.931C237.446 298.929 237.446 298.926 237.446 298.924C237.446 298.921 237.446 298.919 237.446 298.917C237.446 298.914 237.446 298.912 237.446 298.909C237.446 298.907 237.446 298.905 237.446 298.902C237.446 298.9 237.446 298.897 237.446 298.895C237.446 298.892 237.446 298.89 237.446 298.888C237.446 298.885 237.446 298.883 237.446 298.88C237.446 298.878 237.446 298.876 237.446 298.873C237.446 298.871 237.446 298.868 237.446 298.866C237.446 298.863 237.446 298.861 237.446 298.859C237.446 298.856 237.446 298.854 237.446 298.851C237.446 298.849 237.446 298.846 237.446 298.844C237.446 298.842 237.446 298.839 237.446 298.837C237.446 298.834 237.446 298.832 237.446 298.829C237.446 298.827 237.446 298.825 237.446 298.822C237.446 298.82 237.446 298.817 237.446 298.815C237.446 298.812 237.446 298.81 237.446 298.807C237.446 298.805 237.446 298.803 237.446 298.8C237.446 298.798 237.446 298.795 237.446 298.793C237.446 298.79 237.446 298.788 237.446 298.785C237.446 298.783 237.446 298.781 237.446 298.778C237.446 298.776 237.446 298.773 237.446 298.771C237.446 298.768 237.446 298.766 237.446 298.763C237.446 298.761 237.446 298.758 237.446 298.756C237.446 298.754 237.446 298.751 237.446 298.749C237.446 298.746 237.446 298.744 237.446 298.741C237.446 298.739 237.446 298.736 237.446 298.734C237.446 298.731 237.446 298.729 237.446 298.726C237.446 298.724 237.446 298.721 237.446 298.719C237.446 298.716 237.446 298.714 237.446 298.712C237.446 298.709 237.446 298.707 237.446 298.704C237.446 298.702 237.446 298.699 237.446 298.697C237.446 298.694 237.446 298.692 237.446 298.689C237.446 298.687 237.446 298.684 237.446 298.682C237.446 298.679 237.446 298.677 237.446 298.674C237.446 298.672 237.446 298.669 237.446 298.667C237.446 298.664 237.446 298.662 237.446 298.659C237.446 298.657 237.446 298.654 237.446 298.652C237.446 298.649 237.446 298.647 237.446 298.644C237.446 298.642 237.446 298.639 237.446 298.637C237.446 298.634 237.446 298.632 237.446 298.629C237.446 298.627 237.446 298.624 237.446 298.622C237.446 298.619 237.446 298.617 237.446 298.614C237.446 298.612 237.446 298.609 237.446 298.607C237.446 298.604 237.446 298.602 237.446 298.599C237.446 298.597 237.446 298.594 237.446 298.592C237.446 298.589 237.446 298.587 237.446 298.584C237.446 298.582 237.446 298.579 237.446 298.576C237.446 298.574 237.446 298.571 237.446 298.569C237.446 298.566 237.446 298.564 237.446 298.561C237.446 298.559 237.446 298.556 237.446 298.554C237.446 298.551 237.446 298.549 237.446 298.546C237.446 298.544 237.446 298.541 237.446 298.539C237.446 298.536 237.446 298.533 237.446 298.531C237.446 298.528 237.446 298.526 237.446 298.523C237.446 298.521 237.446 298.518 237.446 298.516C237.446 298.513 237.446 298.511 237.446 298.508C237.446 298.505 237.446 298.503 237.446 298.5C237.446 298.498 237.446 298.495 237.446 298.493C237.446 298.49 237.446 298.488 237.446 298.485C237.446 298.482 237.446 298.48 237.446 298.477C237.446 298.475 237.446 298.472 237.446 298.47C237.446 298.467 237.446 298.465 237.446 298.462C237.446 298.459 237.446 298.457 237.446 298.454C237.446 298.452 237.446 298.449 237.446 298.447C237.446 298.444 237.446 298.441 237.446 298.439C237.446 298.436 237.446 298.434 237.446 298.431C237.446 298.429 237.446 298.426 237.446 298.423C237.446 298.421 237.446 298.418 237.446 298.416C237.446 298.413 237.446 298.411 237.446 298.408C237.446 298.405 237.446 298.403 237.446 298.4C237.446 298.398 237.446 298.395 237.446 298.392C237.446 298.39 237.446 298.387 237.446 298.385C237.446 298.382 237.446 298.38 237.446 298.377C237.446 298.374 237.446 298.372 237.446 298.369C237.446 298.367 237.446 298.364 237.446 298.361C237.446 298.359 237.446 298.356 237.446 298.354C237.446 298.351 237.446 298.348 237.446 298.346C237.446 298.343 237.446 298.341 237.446 298.338C237.446 298.335 237.446 298.333 237.446 298.33C237.446 298.328 237.446 298.325 237.446 298.322C237.446 298.32 237.446 298.317 237.446 298.314C237.446 298.312 237.446 298.309 237.446 298.307C237.446 298.304 237.446 298.301 237.446 298.299C237.446 298.296 237.446 298.294 237.446 298.291C237.446 298.288 237.446 298.286 237.446 298.283C237.446 298.28 237.446 298.278 237.446 298.275C237.446 298.273 237.446 298.27 237.446 298.267C237.446 298.265 237.446 298.262 237.446 298.259C237.446 298.257 237.446 298.254 237.446 298.252C237.446 298.249 237.446 298.246 237.446 298.244C237.446 298.241 237.446 298.238 237.446 298.236C237.446 298.233 237.446 298.23 237.446 298.228C237.446 298.225 237.446 298.222 237.446 298.22C237.446 298.217 237.446 298.215 237.446 298.212C237.446 298.209 237.446 298.207 237.446 298.204C237.446 298.201 237.446 298.199 237.446 298.196C237.446 298.193 237.446 298.191 237.446 298.188C237.446 298.185 237.446 298.183 237.446 298.18C237.446 298.177 237.446 298.175 237.446 298.172C237.446 298.169 237.446 298.167 237.446 298.164C237.446 298.161 237.446 298.159 237.446 298.156C237.446 298.153 237.446 298.151 237.446 298.148C237.446 298.145 237.446 298.143 237.446 298.14C237.446 298.137 237.446 298.135 237.446 298.132C237.446 298.129 237.446 298.127 237.446 298.124C237.446 298.121 237.446 298.119 237.446 298.116C237.446 298.113 237.446 298.111 237.446 298.108C237.446 298.105 237.446 298.103 237.446 298.1C237.446 298.097 237.446 298.095 237.446 298.092C237.446 298.089 237.446 298.087 237.446 298.084C237.446 298.081 237.446 298.078 237.446 298.076C237.446 298.073 237.446 298.07 237.446 298.068C237.446 298.065 237.446 298.062 237.446 298.06C237.446 298.057 237.446 298.054 237.446 298.052C237.446 298.049 237.446 298.046 237.446 298.043C237.446 298.041 237.446 298.038 237.446 298.035C237.446 298.033 237.446 298.03 237.446 298.027C237.446 298.025 237.446 298.022 237.446 298.019C237.446 298.016 237.446 298.014 237.446 298.011C237.446 298.008 237.446 298.006 237.446 298.003C237.446 298 237.446 297.997 237.446 297.995C237.446 297.992 237.446 297.989 237.446 297.987C237.446 297.984 237.446 297.981 237.446 297.978C237.446 297.976 237.446 297.973 237.446 297.97C237.446 297.967 237.446 297.965 237.446 297.962C237.446 297.959 237.446 297.957 237.446 297.954C237.446 297.951 237.446 297.948 237.446 297.946C237.446 297.943 237.446 297.94 237.446 297.937C237.446 297.935 237.446 297.932 237.446 297.929C237.446 297.926 237.446 297.924 237.446 297.921C237.446 297.918 237.446 297.916 237.446 297.913C237.446 297.91 237.446 297.907 237.446 297.905C237.446 297.902 237.446 297.899 237.446 297.896C237.446 297.894 237.446 297.891 237.446 297.888C237.446 297.885 237.446 297.883 237.446 297.88C237.446 297.877 237.446 297.874 237.446 297.872C237.446 297.869 237.446 297.866 237.446 297.863C237.446 297.86 237.446 297.858 237.446 297.855C237.446 297.852 237.446 297.849 237.446 297.847C237.446 297.844 237.446 297.841 237.446 297.838C237.446 297.836 237.446 297.833 237.446 297.83C237.446 297.827 237.446 297.825 237.446 297.822C237.446 297.819 237.446 297.816 237.446 297.813C237.446 297.811 237.446 297.808 237.446 297.805C237.446 297.802 237.446 297.8 237.446 297.797C237.446 297.794 237.446 297.791 237.446 297.788C237.446 297.786 237.446 297.783 237.446 297.78C237.446 297.777 237.446 297.775 237.446 297.772C237.446 297.769 237.446 297.766 237.446 297.763C237.446 297.761 237.446 297.758 237.446 297.755C237.446 297.752 237.446 297.749 237.446 297.747C237.446 297.744 237.446 297.741 237.446 297.738C237.446 297.735 237.446 297.733 237.446 297.73C237.446 297.727 237.446 297.724 237.446 297.721C237.446 297.719 237.446 297.716 237.446 297.713C237.446 297.71 237.446 297.707 237.446 297.705C237.446 297.702 237.446 297.699 237.446 297.696C237.446 297.693 237.446 297.691 237.446 297.688C237.446 297.685 237.446 297.682 237.446 297.679C237.446 297.676 237.446 297.674 237.446 297.671C237.446 297.668 237.446 297.665 237.446 297.662C237.446 297.66 237.446 297.657 237.446 297.654C237.446 297.651 237.446 297.648 237.446 297.645C237.446 297.643 237.446 297.64 237.446 297.637C237.446 297.634 237.446 297.631 237.446 297.628C237.446 297.626 237.446 297.623 237.446 297.62C237.446 297.617 237.446 297.614 237.446 297.611C237.446 297.609 237.446 297.606 237.446 297.603C237.446 297.6 237.446 297.597 237.446 297.594C237.446 297.592 237.446 297.589 237.446 297.586C237.446 297.583 237.446 297.58 237.446 297.577C237.446 297.574 237.446 297.572 237.446 297.569C237.446 297.566 237.446 297.563 237.446 297.56C237.446 297.557 237.446 297.555 237.446 297.552C237.446 297.549 237.446 297.546 237.446 297.543C237.446 297.54 237.446 297.537 237.446 297.534C237.446 297.532 237.446 297.529 237.446 297.526C237.446 297.523 237.446 297.52 237.446 297.517C237.446 297.514 237.446 297.512 237.446 297.509C237.446 297.506 237.446 297.503 237.446 297.5C237.446 297.497 237.446 297.494 237.446 297.491C237.446 297.489 237.446 297.486 237.446 297.483C237.446 297.48 237.446 297.477 237.446 297.474C237.446 297.471 237.446 297.468 237.446 297.466C237.446 297.463 237.446 297.46 237.446 297.457C237.446 297.454 237.446 297.451 237.446 297.448C237.446 297.445 237.446 297.443 237.446 297.44C237.446 297.437 237.446 297.434 237.446 297.431C237.446 297.428 237.446 297.425 237.446 297.422C237.446 297.419 237.446 297.416 237.446 297.414C237.446 297.411 237.446 297.408 237.446 297.405C237.446 297.402 237.446 297.399 237.446 297.396C237.446 297.393 237.446 297.39 237.446 297.387C237.446 297.385 237.446 297.382 237.446 297.379C237.446 297.376 237.446 297.373 237.446 297.37C237.446 297.367 237.446 297.364 237.446 297.361C237.446 297.358 237.446 297.355 237.446 297.353C237.446 297.35 237.446 297.347 237.446 297.344C237.446 297.341 237.446 297.338 237.446 297.335C237.446 297.332 237.446 297.329 237.446 297.326C237.446 297.323 237.446 297.32 237.446 297.318C237.446 297.315 237.446 297.312 237.446 297.309C237.446 297.306 237.446 297.303 237.446 297.3C237.446 297.297 237.446 297.294 237.446 297.291C237.446 297.288 237.446 297.285 237.446 297.282C237.446 297.279 237.446 297.276 237.446 297.274C237.446 297.271 237.446 297.268 237.446 297.265C237.446 297.262 237.446 297.259 237.446 297.256C237.446 297.253 237.446 297.25 237.446 297.247C237.446 297.244 237.446 297.241 237.446 297.238C237.446 297.235 237.446 297.232 237.446 297.229C237.446 297.226 237.446 297.223 237.446 297.22C237.446 297.218 237.446 297.215 237.446 297.212C237.446 297.209 237.446 297.206 237.446 297.203C237.446 297.2 237.446 297.197 237.446 297.194C237.446 297.191 237.446 297.188 237.446 297.185C237.446 297.182 237.446 297.179 237.446 297.176C237.446 297.173 237.446 297.17 237.446 297.167C237.446 297.164 237.446 297.161 237.446 297.158C237.446 297.155 237.446 297.152 237.446 297.149C237.446 297.146 237.446 297.143 237.446 297.14C237.446 297.137 237.446 297.134 237.446 297.131C237.446 297.128 237.446 297.125 237.446 297.123C237.446 297.12 237.446 297.117 237.446 297.114C237.446 297.111 237.446 297.108 237.446 297.105C237.446 297.102 237.446 297.099 237.446 297.096C237.446 297.093 237.446 297.09 237.446 297.087C237.446 297.084 237.446 297.081 237.446 297.078C237.446 297.075 237.446 297.072 237.446 297.069C237.446 297.066 237.446 297.063 237.446 297.06C237.446 297.057 237.446 297.054 237.446 297.051C237.446 297.048 237.446 297.045 237.446 297.042C237.446 297.039 237.446 297.036 237.446 297.033C237.446 297.03 237.446 297.027 237.446 297.024C237.446 297.021 237.446 297.018 237.446 297.015C237.446 297.012 237.446 297.009 237.446 297.006C237.446 297.002 237.446 296.999 237.446 296.996C237.446 296.993 237.446 296.99 237.446 296.987C237.446 296.984 237.446 296.981 237.446 296.978C237.446 296.975 237.446 296.972 237.446 296.969C237.446 296.966 237.446 296.963 237.446 296.96C237.446 296.957 237.446 296.954 237.446 296.951C237.446 296.948 237.446 296.945 237.446 296.942C237.446 296.939 237.446 296.936 237.446 296.933C237.446 296.93 237.446 296.927 237.446 296.924C237.446 296.921 237.446 296.918 237.446 296.915C237.446 296.912 237.446 296.909 237.446 296.905C237.446 296.902 237.446 296.899 237.446 296.896C237.446 296.893 237.446 296.89 237.446 296.887C237.446 296.884 237.446 296.881 237.446 296.878C237.446 296.875 237.446 296.872 237.446 296.869C237.446 296.866 237.446 296.863 237.446 296.86C237.446 296.857 237.446 296.854 237.446 296.85C237.446 296.847 237.446 296.844 237.446 296.841C237.446 296.838 237.446 296.835 237.446 296.832C237.446 296.829 237.446 296.826 237.446 296.823C237.446 296.82 237.446 296.817 237.446 296.814C237.446 296.811 237.446 296.808 237.446 296.804C237.446 296.801 237.446 296.798 237.446 296.795C237.446 296.792 237.446 296.789 237.446 296.786C237.446 296.783 237.446 296.78 237.446 296.777C237.446 296.774 237.446 296.771 237.446 296.768C237.446 296.764 237.446 296.761 237.446 296.758C237.446 296.755 237.446 296.752 237.446 296.749C237.446 296.746 237.446 296.743 237.446 296.74C237.446 296.737 237.446 296.734 237.446 296.73C237.446 296.727 237.446 296.724 237.446 296.721C237.446 296.718 237.446 296.715 237.446 296.712C237.446 296.709 237.446 296.706 237.446 296.703C237.446 296.699 237.446 296.696 237.446 296.693C237.446 296.69 237.446 296.687 237.446 296.684C237.446 296.681 237.446 296.678 237.446 296.675C237.446 296.671 237.446 296.668 237.446 296.665C237.446 296.662 237.446 296.659 237.446 296.656C237.446 296.653 237.446 296.65 237.446 296.647C237.446 296.643 237.446 296.64 237.446 296.637C237.446 296.634 237.446 296.631 237.446 296.628C237.446 296.625 237.446 296.622 237.446 296.618C237.446 296.615 237.446 296.612 237.446 296.609C237.446 296.606 237.446 296.603 237.446 296.6C237.446 296.597 237.446 296.593 237.446 296.59C237.446 296.587 237.446 296.584 237.446 296.581C237.446 296.578 237.446 296.575 237.446 296.571C237.446 296.568 237.446 296.565 237.446 296.562C237.446 296.559 237.446 296.556 237.446 296.553C237.446 296.549 237.446 296.546 237.446 296.543C237.446 296.54 237.446 296.537 237.446 296.534C237.446 296.531 237.446 296.527 237.446 296.524C237.446 296.521 237.446 296.518 237.446 296.515C237.446 296.512 237.446 296.508 237.446 296.505C237.446 296.502 237.446 296.499 237.446 296.496C237.446 296.493 237.446 296.49 237.446 296.486C237.446 296.483 237.446 296.48 237.446 296.477C237.446 296.474 237.446 296.471 237.446 296.467C237.446 296.464 237.446 296.461 237.446 296.458C237.446 296.455 237.446 296.452 237.446 296.448C237.446 296.445 237.446 296.442 237.446 296.439C237.446 296.436 237.446 296.432 237.446 296.429C237.446 296.426 237.446 296.423 237.446 296.42C237.446 296.417 237.446 296.413 237.446 296.41C237.446 296.407 237.446 296.404 237.446 296.401C237.446 296.397 237.446 296.394 237.446 296.391C237.446 296.388 237.446 296.385 237.446 296.382C237.446 296.378 237.446 296.375 237.446 296.372C237.446 296.369 237.446 296.366 237.446 296.362C237.446 296.359 237.446 296.356 237.446 296.353C237.446 296.35 237.446 296.346 237.446 296.343C237.446 296.34 237.446 296.337 237.446 296.334C237.446 296.33 237.446 296.327 237.446 296.324C237.446 296.321 237.446 296.317 237.446 296.314C237.446 296.311 237.446 296.308 237.446 296.305C237.446 296.301 237.446 296.298 237.446 296.295C237.446 296.292 237.446 296.289 237.446 296.285C237.446 296.282 237.446 296.279 237.446 296.276C237.446 296.272 237.446 296.269 237.446 296.266C237.446 296.263 237.446 296.26 237.446 296.256C237.446 296.253 237.446 296.25 237.446 296.247C237.446 296.243 237.446 296.24 237.446 296.237C237.446 296.234 237.446 296.231 237.446 296.227C237.446 296.224 237.446 296.221 237.446 296.218C237.446 296.214 237.446 296.211 237.446 296.208C237.446 296.205 237.446 296.201 237.446 296.198C237.446 296.195 237.446 296.192 237.446 296.188C237.446 296.185 237.446 296.182 237.446 296.179C237.446 296.175 237.446 296.172 237.446 296.169C237.446 296.166 237.446 296.162 237.446 296.159C237.446 296.156 237.446 296.153 237.446 296.149C237.446 296.146 237.446 296.143 237.446 296.14C237.446 296.136 237.446 296.133 237.446 296.13C237.446 296.127 237.446 296.123 237.446 296.12C237.446 296.117 237.446 296.114 237.446 296.11C237.446 296.107 237.446 296.104 237.446 296.101C237.446 296.097 237.446 296.094 237.446 296.091C237.446 296.087 237.446 296.084 237.446 296.081C237.446 296.078 237.446 296.074 237.446 296.071C237.446 296.068 237.446 296.065 237.446 296.061C237.446 296.058 237.446 296.055 237.446 296.051C237.446 296.048 237.446 296.045 237.446 296.042C237.446 296.038 237.446 296.035 237.446 296.032C237.446 296.028 237.446 296.025 237.446 296.022C237.446 296.019 237.446 296.015 237.446 296.012C237.446 296.009 237.446 296.005 237.446 296.002C237.446 295.999 237.446 295.996 237.446 295.992C237.446 295.989 237.446 295.986 237.446 295.982C237.446 295.979 237.446 295.976 237.446 295.972C237.446 295.969 237.446 295.966 237.446 295.963C237.446 295.959 237.446 295.956 237.446 295.953C237.446 295.949 237.446 295.946 237.446 295.943C237.446 295.939 237.446 295.936 237.446 295.933C237.446 295.929 237.446 295.926 237.446 295.923C237.446 295.919 237.446 295.916 237.446 295.913C237.446 295.91 237.446 295.906 237.446 295.903C237.446 295.9 237.446 295.896 237.446 295.893C237.446 295.89 237.446 295.886 237.446 295.883C237.446 295.88 237.446 295.876 237.446 295.873C237.446 295.87 237.446 295.866 237.446 295.863C237.446 295.86 237.446 295.856 237.446 295.853C237.446 295.85 237.446 295.846 237.446 295.843C237.446 295.84 237.446 295.836 237.446 295.833H227.446ZM227.459 300.291C227.536 301.366 227.651 302.44 227.804 303.513L237.704 302.099C237.583 301.257 237.493 300.417 237.434 299.578L227.459 300.291ZM227.812 303.566C227.926 304.307 227.959 304.788 227.959 305.062H237.959C237.959 304.105 237.855 303.082 237.696 302.045L227.812 303.566ZM227.998 305.682C228.123 306.685 228.402 307.716 228.728 308.693L238.215 305.531C237.994 304.868 237.932 304.532 237.92 304.441L227.998 305.682ZM228.773 308.821C228.825 308.965 228.865 309.081 228.895 309.174C228.925 309.268 228.942 309.324 228.948 309.349C228.951 309.361 228.951 309.359 228.948 309.346C228.945 309.333 228.938 309.303 228.93 309.257C228.922 309.212 228.911 309.141 228.902 309.047C228.892 308.955 228.882 308.819 228.882 308.65H238.882C238.882 307.842 238.707 307.134 238.61 306.772C238.49 306.322 238.335 305.856 238.171 305.404L228.773 308.821ZM229.031 309.863C229.207 310.566 229.57 311.465 229.882 312.214L239.112 308.368C238.954 307.988 238.842 307.706 238.769 307.51C238.732 307.413 238.711 307.353 238.702 307.326C238.69 307.288 238.707 307.335 238.733 307.438L229.031 309.863ZM230.025 312.527C230.313 313.103 230.491 313.581 230.596 313.965L240.244 311.334C239.938 310.214 239.502 309.12 238.969 308.055L230.025 312.527ZM230.778 314.506C231.368 315.982 232.3 317.216 233.32 318.236L240.391 311.165C240.044 310.817 240.019 310.684 240.062 310.792L230.778 314.506ZM241.855 314.7V314.598H231.855V314.7H241.855ZM232.426 316.918L233.554 319.071L242.413 314.431L241.285 312.278L232.426 316.918ZM234.276 320.106C236.337 322.384 239.016 323.837 242 324.651L244.631 315.003C243.103 314.587 242.227 313.989 241.691 313.396L234.276 320.106ZM244.381 324.712C249.45 323.606 253.475 320.746 255.51 315.927L246.297 312.038C245.734 313.372 244.7 314.407 242.25 314.942L244.381 324.712ZM255.472 316.013C257.039 312.488 258.26 308.271 259.196 303.45L249.379 301.546C248.537 305.886 247.502 309.325 246.334 311.952L255.472 316.013ZM255.625 307.316C257.44 306.812 260.398 306.473 264.746 306.473V296.473C260.071 296.473 256.056 296.817 252.949 297.68L255.625 307.316ZM264.629 306.471L277.754 306.779L277.988 296.782L264.863 296.474L264.629 306.471ZM277.871 306.78H315.708V296.78H277.871V306.78ZM310.732 301.291C309.98 308.935 307.736 315.889 304.016 322.214L312.635 327.284C317.118 319.663 319.795 311.305 320.684 302.27L310.732 301.291ZM308.325 329.749H308.428V319.749H308.325V329.749ZM304.205 322.071C301.225 326.771 296.426 331.061 289.453 334.801L294.18 343.613C302.246 339.287 308.521 333.938 312.65 327.427L304.205 322.071ZM290.163 334.488C279.587 338.195 270.985 340.947 264.326 342.766C257.515 344.627 253.176 345.384 250.903 345.384V355.384C254.646 355.384 260.133 354.278 266.961 352.413C273.939 350.507 282.786 347.67 293.47 343.926L290.163 334.488ZM250.903 345.384C249.976 345.384 249.451 345.322 249.218 345.276L247.257 355.082C248.391 355.309 249.643 355.384 250.903 355.384V345.384ZM248.237 345.179H245.879V355.179H248.237V345.179ZM245.327 345.209L244.404 345.312L245.508 355.251L246.431 355.148L245.327 345.209ZM244.956 345.281H244.033V355.281H244.956V345.281ZM244.033 345.281C243.864 345.281 243.478 345.256 242.804 345.144L241.16 355.008C242.128 355.169 243.108 355.281 244.033 355.281V345.281ZM239.41 345.789C239.461 345.758 239.509 345.735 239.551 345.718C239.593 345.7 239.624 345.691 239.642 345.687C239.676 345.678 239.644 345.691 239.521 345.691V355.691C241.202 355.691 242.951 355.326 244.555 354.364L239.41 345.789ZM240.092 345.724L231.172 344.699L230.03 354.633L238.951 355.659L240.092 345.724ZM228.631 345.07C228.917 344.948 229.11 344.909 229.121 344.907C229.15 344.901 229.112 344.91 228.984 344.923C228.722 344.95 228.284 344.974 227.627 344.974V354.974C228.474 354.974 229.284 354.946 230.013 354.87C230.64 354.805 231.619 354.67 232.57 354.262L228.631 345.07ZM227.627 344.974C227.706 344.974 227.537 344.976 226.965 344.876C226.446 344.785 225.749 344.637 224.851 344.421C223.057 343.988 220.638 343.323 217.565 342.412L214.72 351.999C217.868 352.932 220.473 353.652 222.507 354.142C224.361 354.589 226.23 354.974 227.627 354.974V344.974ZM211.143 347.205V347.308H221.143V347.205H211.143ZM217.543 342.508L215.082 341.79L212.282 351.39L214.743 352.108L217.543 342.508ZM215.263 341.846L212.802 341.026L209.64 350.513L212.101 351.333L215.263 341.846ZM212.628 340.972C203.184 338.202 195.155 333.382 188.452 326.492L181.284 333.465C189.211 341.614 198.749 347.322 209.813 350.567L212.628 340.972ZM188.468 326.508C181.793 319.584 177.575 311.616 175.719 302.524L165.921 304.523C168.167 315.529 173.314 325.197 181.268 333.449L188.468 326.508ZM175.752 302.701C175.524 301.334 175.124 299.381 174.573 296.902L164.811 299.071C165.354 301.514 165.706 303.252 165.888 304.345L175.752 302.701ZM174.579 296.93C174.317 295.715 174.132 294.751 174.014 294.018C173.956 293.652 173.918 293.369 173.896 293.156C173.872 292.933 173.872 292.846 173.872 292.859H163.872C163.872 294.368 164.275 296.592 164.805 299.043L174.579 296.93ZM173.872 292.859V287.938H163.872V292.859H173.872ZM173.872 287.938C173.872 286.83 173.907 286.161 173.944 285.824L164.005 284.719C163.906 285.613 163.872 286.721 163.872 287.938H173.872ZM173.975 285.271V283.733H163.975V285.271H173.975ZM173.975 283.733C173.975 270.314 177.932 258.943 185.764 249.37L178.025 243.038C168.631 254.52 163.975 268.168 163.975 283.733H173.975ZM185.774 249.358C193.685 239.626 204.342 232.695 217.977 228.643L215.128 219.058C199.779 223.619 187.33 231.591 178.015 243.05L185.774 249.358ZM217.953 228.651L220.414 227.933L217.614 218.333L215.153 219.051L217.953 228.651ZM219.851 228.062C223.526 227.438 226.635 226.711 228.8 225.77L224.813 216.599C223.834 217.025 221.747 217.597 218.177 218.203L219.851 228.062ZM223.271 217.649L223.169 217.752L230.24 224.823L230.342 224.72L223.271 217.649ZM259.995 278.244L262.148 276.911L256.885 268.408L254.732 269.741L259.995 278.244ZM264.456 271.882C263.865 268.128 263.28 264.974 262.695 262.455C262.135 260.039 261.5 257.859 260.707 256.273L251.763 260.745C251.996 261.21 252.42 262.413 252.954 264.714C253.463 266.911 254.006 269.807 254.577 273.437L264.456 271.882ZM260.736 256.331C259.651 254.089 258.568 252.099 257.48 250.39L249.043 255.759C249.87 257.057 250.768 258.69 251.735 260.687L260.736 256.331ZM257.513 250.442C254.984 246.358 251.141 243.768 246.187 243.768V253.768C247.11 253.768 247.984 254.049 249.01 255.706L257.513 250.442ZM246.187 243.768C241.325 243.768 237.483 246.321 234.735 250.168L242.872 255.98C244.226 254.085 245.306 253.768 246.187 253.768V243.768ZM234.739 250.163C230.425 256.186 227.968 264.245 226.961 273.883L236.907 274.922C237.814 266.239 239.936 260.08 242.869 255.986L234.739 250.163ZM232.245 279.393C236.535 279.124 240.463 278.992 244.033 278.992V268.992C240.221 268.992 236.082 269.133 231.622 269.412L232.245 279.393ZM244.033 278.992H257.363V268.992H244.033V278.992Z" fill="#2CDA9D"/>
<line x1="242" y1="157.993" x2="432" y2="157.993" stroke="#1D2024" stroke-width="2"/>
<line x1="242" y1="203.993" x2="432" y2="203.993" stroke="#1D2024" stroke-width="2"/>
<path d="M285.769 180.346C285.769 182.95 285.427 185.123 284.743 186.864C284.06 188.606 283.042 190.006 281.691 191.063C280.34 192.121 278.656 192.878 276.638 193.334C274.636 193.773 272.308 193.993 269.655 193.993H252.858C252.614 193.993 252.427 193.993 252.297 193.993C252.183 193.977 252.093 193.944 252.028 193.896C251.963 193.83 251.923 193.741 251.906 193.627C251.906 193.513 251.906 193.35 251.906 193.139V167.699C251.906 167.455 251.906 167.276 251.906 167.162C251.923 167.032 251.963 166.942 252.028 166.894C252.093 166.845 252.191 166.82 252.321 166.82C252.468 166.804 252.663 166.796 252.907 166.796H269.655C272.308 166.796 274.636 167.024 276.638 167.479C278.656 167.935 280.34 168.7 281.691 169.774C283.042 170.832 284.06 172.224 284.743 173.949C285.427 175.674 285.769 177.807 285.769 180.346ZM283.693 180.346C283.693 178.246 283.457 176.448 282.985 174.95C282.513 173.437 281.732 172.2 280.642 171.239C279.551 170.263 278.111 169.547 276.32 169.091C274.53 168.635 272.308 168.407 269.655 168.407H253.981V192.382H269.655C272.308 192.382 274.53 192.154 276.32 191.698C278.111 191.243 279.551 190.535 280.642 189.574C281.732 188.598 282.513 187.353 282.985 185.839C283.457 184.309 283.693 182.478 283.693 180.346ZM317.751 193.139C317.751 193.383 317.71 193.562 317.629 193.676C317.548 193.79 317.434 193.871 317.287 193.92C317.157 193.969 316.994 193.993 316.799 193.993C316.604 193.993 316.384 193.993 316.14 193.993H293.337C293.174 193.993 293.052 193.985 292.971 193.969C292.889 193.952 292.824 193.912 292.775 193.847C292.743 193.782 292.718 193.7 292.702 193.603C292.702 193.489 292.702 193.334 292.702 193.139V167.943C292.702 167.699 292.702 167.504 292.702 167.357C292.718 167.211 292.751 167.097 292.8 167.016C292.849 166.934 292.93 166.877 293.044 166.845C293.174 166.812 293.361 166.796 293.605 166.796H315.896C316.14 166.796 316.368 166.796 316.579 166.796C316.791 166.796 316.978 166.82 317.141 166.869C317.32 166.918 317.458 166.999 317.556 167.113C317.653 167.227 317.702 167.406 317.702 167.65C317.702 167.846 317.653 168 317.556 168.114C317.458 168.212 317.32 168.285 317.141 168.334C316.978 168.383 316.791 168.407 316.579 168.407C316.368 168.407 316.14 168.407 315.896 168.407H294.777V179.101H315.773C316.132 179.101 316.433 179.149 316.677 179.247C316.921 179.345 317.043 179.556 317.043 179.882C317.043 180.24 316.937 180.476 316.726 180.59C316.53 180.704 316.27 180.761 315.944 180.761H294.777V192.382H315.944C316.188 192.382 316.416 192.382 316.628 192.382C316.84 192.382 317.027 192.406 317.189 192.455C317.368 192.504 317.507 192.585 317.604 192.699C317.702 192.797 317.751 192.943 317.751 193.139ZM349.538 193.139C349.538 193.383 349.497 193.562 349.416 193.676C349.335 193.79 349.221 193.871 349.074 193.92C348.944 193.969 348.781 193.993 348.586 193.993C348.391 193.993 348.171 193.993 347.927 193.993H325.124C324.961 193.993 324.839 193.985 324.758 193.969C324.676 193.952 324.611 193.912 324.562 193.847C324.53 193.782 324.506 193.7 324.489 193.603C324.489 193.489 324.489 193.334 324.489 193.139V167.943C324.489 167.699 324.489 167.504 324.489 167.357C324.506 167.211 324.538 167.097 324.587 167.016C324.636 166.934 324.717 166.877 324.831 166.845C324.961 166.812 325.148 166.796 325.393 166.796H347.683C347.927 166.796 348.155 166.796 348.366 166.796C348.578 166.796 348.765 166.82 348.928 166.869C349.107 166.918 349.245 166.999 349.343 167.113C349.44 167.227 349.489 167.406 349.489 167.65C349.489 167.846 349.44 168 349.343 168.114C349.245 168.212 349.107 168.285 348.928 168.334C348.765 168.383 348.578 168.407 348.366 168.407C348.155 168.407 347.927 168.407 347.683 168.407H326.564V179.101H347.561C347.919 179.101 348.22 179.149 348.464 179.247C348.708 179.345 348.83 179.556 348.83 179.882C348.83 180.24 348.724 180.476 348.513 180.59C348.317 180.704 348.057 180.761 347.731 180.761H326.564V192.382H347.731C347.976 192.382 348.203 192.382 348.415 192.382C348.627 192.382 348.814 192.406 348.977 192.455C349.156 192.504 349.294 192.585 349.392 192.699C349.489 192.797 349.538 192.943 349.538 193.139ZM373.635 179.491C373.635 182.03 373.464 184.244 373.122 186.132C372.797 188.004 372.227 189.558 371.413 190.795C370.616 192.032 369.541 192.96 368.19 193.578C366.84 194.18 365.147 194.481 363.112 194.481C361.729 194.481 360.419 194.4 359.182 194.237C357.961 194.075 356.862 193.782 355.886 193.358C354.909 192.935 354.071 192.357 353.371 191.625C352.688 190.876 352.191 189.924 351.882 188.769C351.817 188.638 351.784 188.443 351.784 188.183C351.784 187.857 351.866 187.621 352.028 187.475C352.191 187.312 352.386 187.23 352.614 187.23C352.826 187.23 353.029 187.312 353.225 187.475C353.436 187.621 353.583 187.841 353.664 188.134C353.924 189.257 354.38 190.128 355.031 190.746C355.682 191.365 356.447 191.828 357.326 192.138C358.205 192.447 359.149 192.634 360.158 192.699C361.167 192.764 362.152 192.797 363.112 192.797C364.838 192.797 366.245 192.512 367.336 191.942C368.443 191.356 369.305 190.502 369.924 189.379C370.542 188.256 370.965 186.872 371.193 185.229C371.438 183.568 371.56 181.656 371.56 179.491V168.505C371.56 168.033 371.625 167.634 371.755 167.309C371.885 166.967 372.186 166.796 372.658 166.796C372.87 166.796 373.041 166.853 373.171 166.967C373.301 167.064 373.399 167.195 373.464 167.357C373.529 167.52 373.57 167.707 373.586 167.919C373.618 168.114 373.635 168.31 373.635 168.505V179.491ZM391.994 168.041C392.255 167.569 392.458 167.243 392.604 167.064C392.751 166.885 392.971 166.796 393.264 166.796C393.492 166.796 393.687 166.885 393.85 167.064C394.029 167.227 394.257 167.553 394.533 168.041L408.01 192.357C408.189 192.683 408.278 193 408.278 193.31C408.278 193.603 408.197 193.83 408.034 193.993C407.871 194.156 407.676 194.237 407.448 194.237C407.22 194.237 406.993 194.156 406.765 193.993C406.553 193.847 406.333 193.57 406.105 193.163L401.955 185.644H384.572L380.373 193.261C380.194 193.603 379.982 193.847 379.738 193.993C379.51 194.156 379.283 194.237 379.055 194.237C378.778 194.237 378.575 194.14 378.444 193.944C378.314 193.749 378.249 193.489 378.249 193.163C378.249 193.033 378.273 192.903 378.322 192.772C378.387 192.642 378.461 192.496 378.542 192.333L391.994 168.041ZM401.247 184.203L393.264 169.628L385.28 184.203H401.247ZM419.704 180.932L430.861 167.406C431.171 167.016 431.512 166.82 431.887 166.82C432.424 166.82 432.692 167.113 432.692 167.699C432.692 167.976 432.554 168.277 432.277 168.603L420.754 182.494V192.309C420.754 192.781 420.689 193.179 420.559 193.505C420.445 193.83 420.184 193.993 419.777 193.993C419.533 193.993 419.338 193.952 419.191 193.871C419.061 193.773 418.955 193.651 418.874 193.505C418.793 193.342 418.736 193.163 418.703 192.968C418.687 192.772 418.679 192.569 418.679 192.357V182.445L407.106 168.603C406.944 168.424 406.83 168.269 406.765 168.139C406.716 168.008 406.691 167.838 406.691 167.626C406.691 167.382 406.765 167.187 406.911 167.04C407.074 166.877 407.269 166.796 407.497 166.796C407.855 166.796 408.205 166.999 408.547 167.406L419.704 180.932Z" fill="#1D2024"/>
</svg>
